<!-- Generator: Adobe Illustrator 22.1.0, SVG Export Plug-In  -->
<svg version="1.1"
	 xmlns="http://www.w3.org/2000/svg" xmlns:xlink="http://www.w3.org/1999/xlink" xmlns:a="http://ns.adobe.com/AdobeSVGViewerExtensions/3.0/"
	 x="0px" y="0px" width="242.215px" height="102.224px" viewBox="0 0 242.215 102.224"
	 style="enable-background:new 0 0 242.215 102.224;" xml:space="preserve">
<style type="text/css">
	.st0{fill:#FFDE17;}
</style>
<defs>
</defs>
<g>
	<path class="st0" d="M38.743,0c1.592,0,2.721,0.354,3.383,1.061c0.664,0.71,0.995,1.904,0.995,3.583v64.464
		c0,1.326,1.031,2.491,2.356,2.5c0.011,0,0.021,0,0.032,0c1.503,0,30.917-0.055,32.272-0.051l156.62,0.544
		c0.803,0.003,1.535-0.458,1.88-1.183l2.336-4.908c0.106-0.222,0.245-0.427,0.414-0.606l0.345-0.367
		c0.67-0.714,1.82-0.663,2.423,0.109l0,0c0.27,0.344,0.416,0.769,0.416,1.207v5.883V97.58c0,1.681-0.331,2.877-0.995,3.584
		c-0.663,0.707-1.791,1.06-3.383,1.06H11.941c-1.592,0-2.721-0.353-3.383-1.06c-0.664-0.707-0.995-1.903-0.995-3.584V15.126
		c0-2.209-0.179-3.825-0.531-4.843C6.677,9.268,6.057,8.338,5.174,7.497C4.289,6.657,2.785,5.53,0.663,4.113
		C0.22,3.848,0,3.45,0,2.919V1.327C0,0.444,0.53,0,1.591,0H38.743z"/>
	<path class="st0" d="M74.402,66.922H50.236c-0.949,0-1.726-0.852-1.726-1.893V7.773C48.51,3.498,51.7,0,55.598,0h19.804
		C79.3,0,81.49,2.498,81.49,5.774v52.375C81.49,63.424,78.301,66.922,74.402,66.922z"/>
	<path class="st0" d="M122.949,67.84c-12.472,0-18.961-1.006-25.462-7.022c-6.502-6.014-10.335-13.17-10.752-24.272
		c-0.432-11.49,1.252-21.255,7.754-27.271c6.501-6.015,15.987-9.023,28.46-9.023s21.96,3.008,28.461,9.023
		c6.501,6.016,7.753,15.773,7.753,27.271c0,11.499-3.251,18.258-9.752,24.272C142.91,66.834,138.087,67.84,122.949,67.84z
		 M122.949,61.739c1.592,0,2.389-1.194,2.389-3.582V9.938c0-2.388-0.797-3.582-2.389-3.582s-2.388,1.194-2.388,3.582v48.218
		C120.561,60.545,121.357,61.739,122.949,61.739z"/>
	<path class="st0" d="M178.845,0.327c4.333,0,7.804,0.776,10.414,2.322c2.61,1.548,4.4,3.959,5.374,7.231
		c2.037-3.626,4.797-4.391,8.293-6.294c3.496-1.902,7.453-2.853,11.877-2.853c6.369,0,11.229,1.904,14.596,5.706
		c3.358,3.805,5.04,8.202,5.04,15.188v41.858c0,1.506-0.33,2.587-0.995,3.25c-0.661,0.663-1.836,0.995-3.517,0.995h-23.88
		c-1.681,0-2.852-0.332-3.517-0.995c-0.665-0.663-0.995-1.744-0.995-3.25V21.839c0-0.972-0.222-1.768-0.665-2.388
		c-0.443-0.618-1.058-0.928-1.857-0.928c-1.058,0-1.811,0.354-2.254,1.061v43.901c0,1.506-0.33,2.587-0.995,3.25
		c-0.665,0.663-1.836,0.995-3.517,0.995h-23.881c-1.682,0-2.853-0.332-3.516-0.995c-0.664-0.663-0.995-1.744-0.995-3.25V16.647
		c0-3.095,0.154-5.15-0.327-7.098c-0.447-1.806-2.521-4.161-4.91-5.577c-0.618-0.352-0.994-0.641-1.127-0.863
		c-0.133-0.22-0.2-0.508-0.2-0.863V1.654c0-0.883,0.531-1.327,1.592-1.327H178.845z"/>
</g>
</svg>